<svg width="48" height="48" viewBox="0 0 48 48" fill="none" xmlns="http://www.w3.org/2000/svg">
<path d="M23.6314 30.1329V18.5025H32.8378V30.1329H23.6314Z" fill="#EA0B2A"/>
<path d="M35.2619 39.8239V25.7719H44.4683V39.8239H35.2619Z" fill="#EA0B2A"/>
<path d="M12.0034 43.2177V5.42254H21.2098V43.2177H12.0034Z" fill="#EA0B2A"/>
<path d="M0.373047 37.0349V11.4029H9.48585V37.0349H0.373047Z" fill="#EA0B2A"/>
<path d="M39.1379 5.14403C39.2651 4.66163 39.9467 4.66163 40.0739 5.14403L41.5283 10.6184C41.5715 10.7864 41.7035 10.916 41.8691 10.9616L47.2691 12.4376C47.7443 12.5672 47.7443 13.2392 47.2691 13.3712L41.8739 14.8664C41.7083 14.912 41.5787 15.044 41.5355 15.2096L40.1027 20.6888C39.9755 21.1712 39.2939 21.1712 39.1643 20.6888L37.7099 15.2144C37.6667 15.0464 37.5371 14.9168 37.3691 14.8712L31.9691 13.3952C31.4939 13.2656 31.4939 12.5936 31.9691 12.4616L37.3643 10.9664C37.5299 10.9208 37.6595 10.7888 37.7027 10.6232L39.1355 5.14403H39.1379Z" fill="#EA0B2A"/>
</svg>
